<?xml version="1.0" encoding="UTF-8"?><svg xmlns="http://www.w3.org/2000/svg" viewBox="0 0 135.63 135.63"><defs><style>.t{fill:#ed8b00;}.u{fill:#fff;}</style></defs><g id="a"><g id="b"/><g id="c"/><g id="d"/><g id="e"/><g id="f"/><g id="g"/><g id="h"/><g id="i"/><g id="j"/><g id="k"/><g id="l"><g><path class="t" d="M112.41,29.18H23.22c-4.49,0-8.17,3.67-8.17,8.17v57.39c0,4.49,3.67,8.17,8.17,8.17h10.51v-8.75c0-4.28,3.5-7.79,7.79-7.79h0c4.28,0,7.79,3.5,7.79,7.79v8.75h37.02v-8.75c0-4.28,3.5-7.79,7.79-7.79h0c4.28,0,7.79,3.5,7.79,7.79v8.75h10.52c4.49,0,8.17-3.67,8.17-8.17V37.34c0-4.49-3.67-8.17-8.17-8.17Z"/><rect class="u" x="20.6" y="38.05" width="37.71" height="37.04" rx="3.85" ry="3.85"/><path class="t" d="M45.48,60.85c-1.54,1.67-3.74,2.72-6.19,2.72s-4.59-1.02-6.13-2.65c-5.85,1.54-9.96,5.18-9.96,9.42,0,.24,.01,.47,.04,.7,0,0,.67,1.24,4.11,1.24,2.87,0,22.67,0,24.09,0,2.48,0,4.23-1.24,4.23-1.24,.02-.23,.04-.46,.04-.7,0-4.3-4.23-7.98-10.22-9.48Z"/><circle class="t" cx="39.46" cy="52.77" r="8.6"/><path class="u" d="M109.24,45.86h-38.59c-1.66,0-3-1.34-3-3s1.34-3,3-3h38.59c1.66,0,3,1.34,3,3s-1.34,3-3,3Z"/><path class="u" d="M109.24,60.09h-38.59c-1.66,0-3-1.34-3-3s1.34-3,3-3h38.59c1.66,0,3,1.34,3,3s-1.34,3-3,3Z"/><path class="u" d="M109.24,75.27h-38.59c-1.66,0-3-1.34-3-3s1.34-3,3-3h38.59c1.66,0,3,1.34,3,3s-1.34,3-3,3Z"/></g></g><g id="m"/><g id="n"/><g id="o"/></g><g id="p"/><g id="q"/><g id="r"/><g id="s"/></svg>