<?xml version="1.0" encoding="utf-8"?>
<!-- Generator: Adobe Illustrator 26.2.1, SVG Export Plug-In . SVG Version: 6.00 Build 0)  -->
<svg version="1.1" id="Layer_1" xmlns="http://www.w3.org/2000/svg" xmlns:xlink="http://www.w3.org/1999/xlink" x="0px" y="0px"
	 viewBox="0 0 135.6 135.6" style="enable-background:new 0 0 135.6 135.6;" xml:space="preserve">
<style type="text/css">
	.st0{fill:#ED8B00;}
	.st1{fill:#FFFFFF;}
</style>
<path class="st0" d="M106.4,66.1c1.5-2.3,2.3-5.1,2.3-8c0-8.3-6.7-15-15-15c-3.9,0-7.4,1.5-10.1,3.9C78.9,36.1,68,28.5,55.4,28.5
	c-17,0-30.8,13.8-30.8,30.8c0,1,0.1,2,0.1,3C16.6,66.6,11,75.2,11,85.1c0,13.6,10.5,24.7,23.8,25.8v0.1h63.8v-0.2
	c0.9,0.1,1.8,0.2,2.7,0.2c12.5,0,22.7-10.2,22.7-22.7C124.1,77.4,116.5,68.4,106.4,66.1L106.4,66.1z"/>
<polygon class="st1" points="63.5,51.7 58.8,56.5 58.8,56.5 45.5,69.8 50.2,74.5 60.1,64.6 60.1,95.8 66.8,95.8 66.8,64.5 
	76.8,74.5 81.5,69.8 "/>
</svg>
