<?xml version="1.0" encoding="UTF-8"?><svg xmlns="http://www.w3.org/2000/svg" viewBox="0 0 135.63 135.63"><defs><style>.t{fill:#ed8b00;}.u{fill:#fff;}</style></defs><g id="a"><g id="b"/><g id="c"/><g id="d"/><g id="e"/><g id="f"/><g id="g"/><g id="h"/><g id="i"/><g id="j"><g><path class="t" d="M97.65,109.18c-21.16,0-65.03-.17-69.28-.19-1.77,.36-5.03,.21-6.32-2.76-.99-2.28-1.5-8.58-1.89-15.06l-.04-.58c-.11-1.73-1.03-11.53-1.84-20.17-.77-8.2-1.44-15.28-1.49-16.25-.07-1.27-.2-3.92,1.58-5.76,1.18-1.21,2.89-1.79,5.14-1.76,2.43,.06,24.51,.02,45.87,0,26.28-.03,42.3-.05,43.23,0,.95,.05,3.33,.38,4.93,2.2,.97,1.1,1.42,2.52,1.32,4.1-.18,2.61-4.26,48.63-4.71,51.07-.46,2.54-1.21,4.84-5.27,5.11-.6,.04-4.9,.05-11.23,.05Z"/><path class="t" d="M21.47,47.38l-.42-7.18c-.1-1.68,.42-3.18,1.44-4.24,.76-.78,2.19-1.7,4.67-1.62,3.2,.1,35.38,.1,39.04,.1,.41,0,.56-.04,.59-.05,0-.01,.19-.3,.35-1.28l.08-.49c.35-2.31,.95-6.18,6.16-6.18h34.21c1.89,0,3.71,.71,4.86,1.9,.98,1.01,1.46,2.33,1.41,3.81-.1,2.63,0,14.55,0,14.67l-4,.04c0-.49-88.39,.52-88.39,.52Z"/><g><path class="u" d="M29.09,46.25s-.52-6.13,3.22-6.03c3.74,.1,68.22-.11,70.3,0,2.08,.1,3.74,2.15,3.85,6.03-8.42,0-77.37,0-77.37,0Z"/><path class="u" d="M82.65,46.91H28.48l-.05-.61c-.01-.16-.31-3.92,1.42-5.75,.65-.69,1.5-1.03,2.48-1,1.87,.05,19.13,.03,35.83,0,17.19-.03,33.43-.05,34.48,0,2.08,.1,4.35,1.91,4.48,6.67l.02,.68h-24.48Zm-52.93-1.32c6.78,0,65.72,0,76.04,0-.23-2.83-1.42-4.62-3.18-4.71-1.02-.05-18-.02-34.42,0-16.71,.03-33.98,.05-35.87,0-.63-.03-1.1,.17-1.49,.58-.91,.97-1.09,2.95-1.08,4.12Z"/></g></g></g><g id="k"/><g id="l"/><g id="m"/><g id="n"/><g id="o"/></g><g id="p"/><g id="q"/><g id="r"/><g id="s"/></svg>