<?xml version="1.0" encoding="UTF-8"?><svg xmlns="http://www.w3.org/2000/svg" viewBox="0 0 135.63 135.63"><defs><style>.t{fill:#ed8b00;}</style></defs><g id="a"><g id="b"/><g id="c"/><g id="d"><g><g><path class="t" d="M36.52,103.75h2.67c.4,0,.72-.32,.72-.72v-4.04c0-.4-.32-.72-.72-.72H17.21c-.4,0-.72,.32-.72,.72v13.64c0,.4,.32,.72,.72,.72h17.87c.4,0,.72-.32,.72-.72v-8.16c0-.4,.32-.72,.72-.72Z"/><path class="t" d="M95.72,98.99v4.04c0,.4,.32,.72,.72,.72h2.67c.4,0,.72,.32,.72,.72v8.16c0,.4,.32,.72,.72,.72h17.87c.4,0,.72-.32,.72-.72v-13.64c0-.4-.32-.72-.72-.72h-21.98c-.4,0-.72,.32-.72,.72Z"/></g><g><rect class="t" x="44.02" y="98.27" width="47.58" height="5.48" rx=".72" ry=".72"/><rect class="t" x="39.91" y="107.86" width="55.81" height="5.48" rx=".72" ry=".72"/></g><g><rect class="t" x="25.57" y="51.42" width="14.86" height="42.73" rx=".72" ry=".72"/><rect class="t" x="60.38" y="51.42" width="14.86" height="42.73" rx=".72" ry=".72"/><rect class="t" x="95.19" y="51.42" width="14.86" height="42.73" rx=".72" ry=".72"/></g><g><path class="t" d="M111.48,45.93l-43.38-19.35c-.19-.08-.4-.08-.59,0L24.14,45.93c-.71,.32-.48,1.38,.29,1.38H111.19c.78,0,1-1.06,.29-1.38Z"/><path class="t" d="M126.2,43.49l-53.34-23.8c-2.88-1.29-7.22-1.29-10.1,0L9.43,43.49c-1.04,.46-1.5,1.68-1.04,2.72,.46,1.04,1.68,1.51,2.72,1.04l53.34-23.8c1.8-.8,4.95-.8,6.75,0l53.34,23.8c1.04,.47,2.25,0,2.72-1.04,.46-1.04,0-2.25-1.04-2.72Z"/></g></g></g><g id="e"/><g id="f"/><g id="g"/><g id="h"/><g id="i"/><g id="j"/><g id="k"/><g id="l"/><g id="m"/><g id="n"/><g id="o"/></g><g id="p"/><g id="q"/><g id="r"/><g id="s"/></svg>