<?xml version="1.0" encoding="UTF-8"?><svg xmlns="http://www.w3.org/2000/svg" viewBox="0 0 135.63 135.63"><defs><style>.t{fill:#ed8b00;}.u{fill:#fff;}</style></defs><g id="a"><g id="b"/><g id="c"/><g id="d"/><g id="e"/><g id="f"/><g id="g"><g><path class="t" d="M105.81,111.54H29.81c-7.19,0-13.05-5.85-13.05-13.05V51.7c0-7.19,5.85-13.05,13.05-13.05H105.81c7.19,0,13.05,5.85,13.05,13.05v46.79c0,7.19-5.85,13.05-13.05,13.05Z"/><rect class="u" x="58.53" y="52.51" width="18.57" height="48.2" rx=".28" ry=".28"/><rect class="u" x="58.53" y="51.67" width="18.57" height="48.2" rx=".28" ry=".28" transform="translate(-7.95 143.58) rotate(-90)"/><rect class="t" x="36.62" y="35.01" width="19.04" height="6.1" rx=".28" ry=".28"/><rect class="t" x="81.72" y="35.01" width="19.04" height="6.1" rx=".28" ry=".28"/><path class="t" d="M94.67,38.79h-6.87v-8.47c0-1.61-1.31-2.92-2.92-2.92H52.5c-1.61,0-2.92,1.31-2.92,2.92v8.47h-6.87v-8.47c0-5.4,4.39-9.79,9.79-9.79h32.38c5.4,0,9.79,4.39,9.79,9.79v8.47Z"/></g></g><g id="h"/><g id="i"/><g id="j"/><g id="k"/><g id="l"/><g id="m"/><g id="n"/><g id="o"/></g><g id="p"/><g id="q"/><g id="r"/><g id="s"/></svg>