<?xml version="1.0" encoding="UTF-8"?><svg xmlns="http://www.w3.org/2000/svg" viewBox="0 0 135.63 135.63"><defs><style>.t{fill:#ed8b00;}</style></defs><g id="a"><g id="b"/><g id="c"><g><path class="t" d="M53.71,40.38l1.24,5.42c.31,1.37,2.16,1.81,2.93,.63l.02-.03,9.62-15.31c.57-.91,.3-2.1-.61-2.67l-15.31-9.62-.03-.02c-1.2-.73-2.68,.48-2.36,1.84l1.03,4.5c.24,1.05-.28,2.13-1.25,2.58-15.26,7.01-25.87,22.42-25.87,40.31,0,24.16,19.33,43.8,43.37,44.32l-6.28-3.73c-.92-.55-1.22-1.73-.67-2.65l2.76-4.64h0c-16.09-2.58-28.55-16.5-28.55-33.29,0-12.29,6.74-23.19,16.6-29.12,1.32-.8,3.04-.02,3.38,1.48Z"/><path class="t" d="M81.92,95.24l-1.24-5.42c-.31-1.37-2.16-1.81-2.93-.63l-.02,.03-9.62,15.31c-.57,.91-.3,2.1,.61,2.67l15.31,9.62,.03,.02c1.2,.73,2.68-.48,2.36-1.84l-1.03-4.5c-.24-1.05,.28-2.13,1.25-2.58,15.26-7.01,25.87-22.42,25.87-40.31,0-24.16-19.33-43.8-43.37-44.32l6.28,3.73c.92,.55,1.22,1.73,.67,2.65l-2.76,4.64h0c16.09,2.58,28.55,16.5,28.55,33.29,0,12.29-6.74,23.19-16.6,29.12-1.32,.8-3.04,.02-3.38-1.48Z"/><path class="t" d="M64.13,60.62c.3,.42,.82,.79,1.54,1.13s1.34,.6,1.87,.79c.53,.19,1.37,.45,2.52,.77,1.34,.38,2.4,.71,3.17,.98,.77,.27,1.74,.72,2.9,1.34,1.17,.62,2.07,1.29,2.71,1.99,.64,.7,1.21,1.65,1.7,2.83s.74,2.51,.74,3.98c0,2.43-.93,4.53-2.81,6.29-1.87,1.76-4.29,2.83-7.27,3.21v3.6c0,.22-.08,.42-.24,.58-.16,.16-.35,.24-.58,.24h-3.26c-.22,0-.42-.08-.58-.24-.16-.16-.24-.35-.24-.58v-3.6c-3.13-.26-6.32-1.21-9.55-2.88-.22-.1-.37-.26-.43-.48-.06-.22-.03-.43,.1-.62l2.06-4.17c.29-.48,.66-.61,1.1-.38,3.49,1.6,6.53,2.4,9.12,2.4,1.54,0,2.85-.31,3.93-.93,1.09-.62,1.63-1.45,1.63-2.47,0-.58-.14-1.1-.41-1.58-.27-.48-.58-.87-.91-1.18-.34-.3-.88-.62-1.63-.93-.75-.32-1.34-.55-1.77-.7-.43-.14-1.16-.38-2.18-.7-.29-.1-.5-.16-.62-.19-1.22-.35-2.18-.66-2.9-.94-.72-.27-1.58-.68-2.59-1.22-1.01-.54-1.79-1.13-2.35-1.75s-1.05-1.44-1.46-2.45c-.42-1.01-.62-2.13-.62-3.38,0-2.78,.87-5.03,2.61-6.74,1.74-1.71,4.04-2.69,6.89-2.95v-3.5c0-.22,.08-.42,.24-.58s.35-.24,.58-.24h3.26c.22,0,.42,.08,.58,.24,.16,.16,.24,.35,.24,.58v3.74c2.59,.42,5.25,1.22,7.96,2.4,.51,.22,.66,.59,.43,1.1l-1.92,4.32c-.22,.45-.59,.59-1.1,.43-3.65-1.41-6.25-2.11-7.82-2.11s-2.8,.22-3.69,.65-1.38,1.24-1.44,2.42c.03,.58,.2,1.07,.5,1.49Z"/></g></g><g id="d"/><g id="e"/><g id="f"/><g id="g"/><g id="h"/><g id="i"/><g id="j"/><g id="k"/><g id="l"/><g id="m"/><g id="n"/><g id="o"/></g><g id="p"/><g id="q"/><g id="r"/><g id="s"/></svg>