<?xml version="1.0" encoding="UTF-8"?><svg xmlns="http://www.w3.org/2000/svg" viewBox="0 0 135.63 135.63"><defs><style>.t{fill:#ed8b00;}</style></defs><g id="a"><g id="b"/><g id="c"/><g id="d"/><g id="e"/><g id="f"/><g id="g"/><g id="h"><g><path class="t" d="M89.75,54.27l-73.56-4.39c-.9,0-1.64,.74-1.64,1.64v60.62c0,.9,.74,1.64,1.64,1.64l73.56,6.47c.9,0,1.64-.74,1.64-1.64V55.91c0-.9-.74-1.64-1.64-1.64Zm-22.32,20.12c0,.9-.74,1.64-1.64,1.64l-27.6-1.42c-.9,0-1.64-.74-1.64-1.64v-7.41c0-.9,.74-1.64,1.64-1.64l27.6,1.42c.9,0,1.64,.74,1.64,1.64v7.41Z"/><path class="t" d="M93.32,55.14l.21,62.14c0,.9,.74,1.69,1.64,.78l24.95-23.79c.63-.63,.93-.88,.93-1.78V31.33c0-.9-1-1.08-1.64-.26l-25.2,21.86c-.62,.69-.89,1.3-.89,2.2Z"/><path class="t" d="M15.84,51.23c-.35,0-1.29,.67-1.29,.29,0-1.66,.11-1.98,.62-2.35,11.46-8.36,28.83-21.07,29.69-21.83,1.07-1.07,2.37-1.52,4.46-1.52,1.77,0,26.13,1.23,45.71,2.22,12.46,.63,24.23,1.22,24.81,1.23,.63,0,1.24,.53,1.24,1.16,0,.35-.02,.68-.02,1.03,0,.19-.29,.14-.57,.14-.54,0-10.02-.5-25.57-1.29-19.55-.99-43.88-2.21-45.6-2.21-1.85,0-2.43,.43-2.87,.87-.76,.76-23.1,17.06-29.93,22.04-.2,.15-.44,.22-.67,.22Z"/><path class="t" d="M37.33,40.77s-.06-2.59,2.23-2.59c2.52,0,16.05,.56,17.48,.61,.78,.03,1.54,.38,1.54,1.57,0,.52,.04,1.28,.04,1.96,4.29,.21,41.66,2.3,41.66,2.3l-9.14,7.79-53.8-3.24v-8.41Z"/><path class="t" d="M57.87,37.04c1.63,.06,2.64,1.09,2.64,2.71,0,.23,0,.52,.02,.82v.05c7.38,.39,40.25,2.23,40.61,2.25l1.2,.07,7.63-6.5s-37.37-2.09-41.66-2.3c0-.68-.04-1.44-.04-1.96,0-1.19-.76-1.55-1.54-1.57-1.44-.05-14.96-.61-17.48-.61-2.29,0-2.23,2.59-2.23,2.59v4.04c3.12,.11,6.57,.25,8.79,.34l2.06,.08Z"/></g></g><g id="i"/><g id="j"/><g id="k"/><g id="l"/><g id="m"/><g id="n"/><g id="o"/></g><g id="p"/><g id="q"/><g id="r"/><g id="s"/></svg>