<?xml version="1.0" encoding="utf-8"?>
<!-- Generator: Adobe Illustrator 26.2.1, SVG Export Plug-In . SVG Version: 6.00 Build 0)  -->
<svg version="1.1" id="Layer_1" xmlns="http://www.w3.org/2000/svg" xmlns:xlink="http://www.w3.org/1999/xlink" x="0px" y="0px"
	 viewBox="0 0 135.6 135.6" style="enable-background:new 0 0 135.6 135.6;" xml:space="preserve">
<style type="text/css">
	.st0{fill:#ED8B00;}
	.st1{fill:#FFFFFF;}
	.st2{fill:#ED8B00;stroke:#FFFFFF;stroke-width:4;}
</style>
<g id="a">
	<g id="b">
	</g>
	<g id="c">
	</g>
	<g id="d">
	</g>
	<g id="e">
	</g>
	<g id="f">
	</g>
	<g id="g">
	</g>
	<g id="h">
	</g>
	<g id="i">
	</g>
	<g id="j">
	</g>
	<g id="k">
	</g>
	<g id="l">
	</g>
	<g id="m">
	</g>
	<g id="n">
	</g>
	<g id="o">
	</g>
</g>
<g id="p">
</g>
<g id="q">
</g>
<g id="r">
</g>
<g id="s">
</g>
<g id="t">
</g>
<g id="u">
</g>
<g id="v">
	<g>
		<path class="st0" d="M34.1,25.8h69.1c5,0,9,4,9,9v79.9c0,5-4,9-9,9H34.1c-5,0-9-4-9-9V34.8C25.1,29.9,29.1,25.8,34.1,25.8z"/>
		<path class="st1" d="M36.7,32.6h62.4c2,0,3.6,1.6,3.6,3.6v72.5c0,2-1.6,3.6-3.6,3.6H36.7c-2,0-3.6-1.6-3.6-3.6V36.2
			C33.1,34.3,34.7,32.6,36.7,32.6z"/>
		<path class="st2" d="M87.4,19.6h-9.6c-0.2-5.4-4.6-9.8-10-9.8s-9.9,4.3-10,9.8h-9.6c-1.8,0-5.4,2.5-5.4,4.3v9.6
			c0,1.8,1.4,3.2,3.2,3.2h43.6c1.8,0,3.2-1.4,3.2-3.2v-9.6C92.8,22.1,89.2,19.6,87.4,19.6z M67.8,24.6c-2.6,0-4.7-2.1-4.7-4.7
			s2.1-4.7,4.7-4.7s4.7,2.1,4.7,4.7S70.4,24.6,67.8,24.6z"/>
		<path class="st0" d="M87.4,19.6h-9.6c-0.2-5.4-4.6-9.8-10-9.8s-9.9,4.3-10,9.8h-9.6c-1.8,0-5.4,2.5-5.4,4.3v10
			c0,1.8,1.4,3.2,3.2,3.2h43.6c1.8,0,3.2-1.4,3.2-3.2v-10C92.8,22.1,89.2,19.6,87.4,19.6z M67.8,24.6c-2.6,0-4.7-2.1-4.7-4.7
			s2.1-4.7,4.7-4.7s4.7,2.1,4.7,4.7S70.4,24.6,67.8,24.6z"/>
		<path class="st0" d="M94.6,48.5c0,1.1-0.9,2.1-2.1,2.1H42.4c-1.1,0-2.1-0.9-2.1-2.1l0,0c0-1.1,0.9-2.1,2.1-2.1h50.1
			C93.6,46.4,94.6,47.3,94.6,48.5L94.6,48.5z"/>
		<g>
			<path class="st0" d="M94.6,64.1c0-1.1-0.9-2.1-2.1-2.1H78.1c1.1,1.3,2.2,2.7,3,4.2h11.4C93.6,66.2,94.5,65.3,94.6,64.1L94.6,64.1
				z"/>
			<path class="st0" d="M92.5,102.8c1.1,0,2.1-0.9,2.1-2.1s-0.9-2.1-2.1-2.1H74.4c-2.6,1.9-5.5,3.3-8.7,4.2L92.5,102.8L92.5,102.8z"
				/>
			<path class="st0" d="M92.5,84.4c1.1,0,2.1-0.9,2.1-2.1s-0.9-2.1-2.1-2.1h-8.1c-0.1,1.4-0.3,2.8-0.6,4.2L92.5,84.4L92.5,84.4z"/>
		</g>
		<g>
			<path class="st0" d="M86.2,84.3H39.1c-0.8,0-1.6,0.4-2.1,1c0.4,1.4,1,2.8,1.6,4.2c0.2,0,0.3,0.1,0.5,0.1h45.2
				C85.1,87.9,85.8,86.1,86.2,84.3L86.2,84.3z"/>
			<path class="st0" d="M37.8,68.9c0.4,0.3,0.9,0.4,1.4,0.4h46.1c-0.7-1.8-1.6-3.6-2.7-5.2H40.3C39.3,65.6,38.5,67.2,37.8,68.9z"/>
		</g>
		<g>
			<path class="st1" d="M18.6,105.6l-2.4-3.2l13.1-10c3.8-1.9,7.2-0.4,8.4,0.1l0.2,0.1l-1.6,3.7l-0.2-0.1c-1-0.4-2.8-1.2-4.9-0.3
				L18.6,105.6L18.6,105.6z"/>
			
				<rect x="19.2" y="109.7" transform="matrix(0.7838 -0.621 0.621 0.7838 -62.4147 44.0648)" class="st1" width="25.8" height="4"/>
			<g>
				<path class="st0" d="M57.5,104.9c-14.5-2.2-24.4-15.8-22.1-30.3s15.8-24.4,30.3-22.2c14.4,2.2,24.4,15.8,22.2,30.3
					S72,107.1,57.5,104.9z M65.1,56C52.6,54,40.8,62.7,38.9,75.2s6.7,24.3,19.2,26.2c12.5,1.9,24.3-6.7,26.2-19.2
					C86.3,69.7,77.6,57.9,65.1,56z"/>
				<path class="st1" d="M61.6,107c-1.4,0-2.9-0.1-4.3-0.3c-7.5-1.2-14-5.2-18.5-11.2s-6.3-13.6-5.1-21C36,59,50.5,48.4,65.9,50.8
					c15.4,2.4,26,16.8,23.6,32.3C87.4,97,75.3,107,61.6,107L61.6,107z M61.6,53.9c-12,0-22.6,8.8-24.5,21c-1,6.5,0.6,13.1,4.5,18.4
					s9.7,8.8,16.2,9.8l0,0C71.3,105.2,84,96,86.1,82.5c2.1-13.5-7.2-26.2-20.7-28.3C64.1,54,62.8,53.9,61.6,53.9z M61.6,103.4
					c-1.3,0-2.5-0.1-3.8-0.3C44.3,101,35.1,88.4,37.2,74.9s14.7-22.8,28.2-20.7l0,0C78.9,56.3,88.1,69,86,82.5
					c-1,6.5-4.5,12.3-9.8,16.2C71.9,101.8,66.8,103.4,61.6,103.4L61.6,103.4z M61.6,57.5c-10.3,0-19.4,7.5-21,18
					C38.8,87,46.8,97.9,58.4,99.7c5.6,0.9,11.2-0.5,15.8-3.9c4.6-3.3,7.6-8.3,8.4-13.9c1.8-11.6-6.2-22.4-17.7-24.2
					C63.8,57.5,62.7,57.5,61.6,57.5z"/>
			</g>
			<path class="st0" d="M57.5,104.9c-14.5-2.2-24.4-15.8-22.1-30.3s15.8-24.4,30.3-22.2c14.4,2.2,24.4,15.8,22.2,30.3
				S72,107.1,57.5,104.9z M65.1,56C52.6,54,40.8,62.7,38.9,75.2s6.7,24.3,19.2,26.2c12.5,1.9,24.3-6.7,26.2-19.2
				C86.3,69.7,77.6,57.9,65.1,56z"/>
			<path class="st0" d="M37.1,97.1c0,0-2.6-4.1-10.1,1.8s-14.2,10.3-16,11.9s0.3,5.8,1.6,7s4.8,3.1,7.3,1.7s17.5-13.2,18.8-15.1
				S41.8,97.9,37.1,97.1L37.1,97.1z"/>
			<path class="st0" d="M35.4,102.2c-0.8-0.1-1.2-0.7-1.8-1.4c-1.1-1.4-1.1-3,0.3-4.1l5.6-4.4c1.4-1.1,2.1-0.1,3.2,1.3
				c1.1,1.4,2.1,2.6,0.7,3.7l-5.6,4.4C37.1,102.3,36.3,102.4,35.4,102.2L35.4,102.2z"/>
			<path class="st0" d="M16.6,121.9c-1.7-0.3-3.6-1.3-5.2-3c-1.9-2-2.4-4.6-2.3-6.5c0.1-1.4,0.6-2.6,1.4-3.2
				c1.4-1.1,16-12.2,18.9-14.4c3.7-2.8,7.6-0.5,7.7-0.4l-1.5,2.4c-0.1-0.1-2.4-1.4-4.5,0.2c-1.8,1.3-17.5,13.3-18.8,14.3
				c-0.1,0.1-0.3,0.4-0.3,1.3c0,1.1,0.3,2.9,1.5,4.2c2.1,2.1,4.1,2.4,4.9,2c0.3-0.2,2.6-1.8,18.8-14.8l0.4-0.3
				c0.7-0.6,1.4-2.2,0.7-3.9l2.6-1.2c1.4,2.9,1.7,5.4-1.5,7.3l-0.4,0.3c-8,6.4-17.9,14.2-19.1,14.9C18.9,121.9,17.8,122,16.6,121.9z
				"/>
		</g>
	</g>
	<path class="st1" d="M40.6,106.1c-2,0-4.6-1.6-6.8-4.3c-2.9-3.7-3.7-7.7-1.7-9.3c1.4-1.1,4.4-0.8,5.9,1l-1.5,1.3
		c-0.9-1.1-2.7-1.1-3.1-0.7c-0.8,0.6-0.4,3.4,2,6.5s5,4,5.8,3.4c0.6-0.4,0.7-2.9-0.5-4.5l1.6-1.2c1.7,2.2,1.7,5.9,0.1,7.2
		C41.9,105.9,41.3,106.1,40.6,106.1z"/>
</g>
<g id="w">
</g>
</svg>
